<?xml version="1.0" standalone="no"?><svg xmlns="http://www.w3.org/2000/svg" viewBox="0 0 1440 320"><path fill="#00cbff" fill-opacity="1" d="M0,64L26.7,85.3C53.3,107,107,149,160,149.3C213.3,149,267,107,320,106.7C373.3,107,427,149,480,138.7C533.3,128,587,64,640,58.7C693.3,53,747,107,800,128C853.3,149,907,139,960,160C1013.3,181,1067,235,1120,240C1173.3,245,1227,203,1280,160C1333.3,117,1387,75,1413,53.3L1440,32L1440,0L1413.3,0C1386.7,0,1333,0,1280,0C1226.7,0,1173,0,1120,0C1066.7,0,1013,0,960,0C906.7,0,853,0,800,0C746.7,0,693,0,640,0C586.7,0,533,0,480,0C426.7,0,373,0,320,0C266.7,0,213,0,160,0C106.7,0,53,0,27,0L0,0Z"></path></svg>